HIERARCHY
ROOT Hips
{
 OFFSET 0.000000 0.000000 0.000000
 CHANNELS 6 Xposition Yposition Zposition Yrotation Xrotation Zrotation
 JOINT Chest
 {
  OFFSET 0.000000 9.585900 0.002600
  CHANNELS 3 Yrotation Xrotation Zrotation
  JOINT Chest2
  {
   OFFSET 0.000000 9.601200 -0.005300
   CHANNELS 3 Yrotation Xrotation Zrotation
   JOINT Chest3
   {
    OFFSET 0.000000 9.561800 0.000000
    CHANNELS 3 Yrotation Xrotation Zrotation
    JOINT Chest4
    {
     OFFSET 0.000000 9.552100 0.000000
     CHANNELS 3 Yrotation Xrotation Zrotation
     JOINT Neck
     {
      OFFSET 0.000000 14.453000 0.000000
      CHANNELS 3 Yrotation Xrotation Zrotation
      JOINT Head
      {
       OFFSET 0.000000 8.936500 -0.011300
       CHANNELS 3 Yrotation Xrotation Zrotation
       End Site
       {
        OFFSET 0.000000 17.073600 -0.006000
       }
      }
     }
     JOINT RightCollar
     {
      OFFSET -2.921100 9.558500 0.000000
      CHANNELS 3 Yrotation Xrotation Zrotation
      JOINT RightShoulder
      {
       OFFSET -13.519700 0.000000 0.000000
       CHANNELS 3 Yrotation Xrotation Zrotation
       JOINT RightElbow
       {
        OFFSET 0.000000 -29.696600 0.000000
        CHANNELS 3 Yrotation Xrotation Zrotation
        JOINT RightWrist
        {
         OFFSET 0.000000 -24.004700 0.000000
         CHANNELS 3 Yrotation Xrotation Zrotation
         End Site
         {
          OFFSET 0.000000 -17.728500 0.000000
         }
        }
       }
      }
     }
     JOINT LeftCollar
     {
      OFFSET 2.921100 9.558500 0.000000
      CHANNELS 3 Yrotation Xrotation Zrotation
      JOINT LeftShoulder
      {
       OFFSET 13.519700 0.000000 0.000000
       CHANNELS 3 Yrotation Xrotation Zrotation
       JOINT LeftElbow
       {
        OFFSET 0.000000 -29.696600 0.000000
        CHANNELS 3 Yrotation Xrotation Zrotation
        JOINT LeftWrist
        {
         OFFSET 0.000000 -24.004700 0.000000
         CHANNELS 3 Yrotation Xrotation Zrotation
         End Site
         {
          OFFSET 0.000000 -17.728500 0.000000
         }
        }
       }
      }
     }
    }
   }
  }
 }
 JOINT RightHip
 {
  OFFSET -7.771700 -0.012900 -0.001300
  CHANNELS 3 Yrotation Xrotation Zrotation
  JOINT RightKnee
  {
   OFFSET 0.000000 -40.869800 0.001200
   CHANNELS 3 Yrotation Xrotation Zrotation
   JOINT RightAnkle
   {
    OFFSET 0.000000 -39.717900 0.002100
    CHANNELS 3 Yrotation Xrotation Zrotation
    JOINT RightToe
    {
     OFFSET 0.000000 -4.965400 11.033500
     CHANNELS 3 Yrotation Xrotation Zrotation
     End Site
     {
      OFFSET 0.000000 -1.423100 5.872300
     }
    }
   }
  }
 }
 JOINT LeftHip
 {
  OFFSET 7.771700 -0.012900 -0.001300
  CHANNELS 3 Yrotation Xrotation Zrotation
  JOINT LeftKnee
  {
   OFFSET 0.000000 -40.869800 0.001200
   CHANNELS 3 Yrotation Xrotation Zrotation
   JOINT LeftAnkle
   {
    OFFSET 0.000000 -39.717900 0.002100
    CHANNELS 3 Yrotation Xrotation Zrotation
    JOINT LeftToe
    {
     OFFSET 0.000000 -4.965400 11.033500
     CHANNELS 3 Yrotation Xrotation Zrotation
     End Site
     {
      OFFSET 0.000000 -1.423100 5.872300
     }
    }
   }
  }
 }
}
MOTION
Frames: 12
Frame Time: 0.008333
-51.177153 56.349929 -18.422321 -177.459289 -13.261104 -0.367957 -0.059615 15.299527 -0.424376 0.013629 1.439798 0.027737 0.028011 2.417427 0.041807 0.202090 13.691587 0.230823 -0.022471 10.773348 4.068298 -0.964558 -14.317941 4.348730 -0.829153 -1.787235 1.501096 0.522770 -3.315668 -6.898994 -68.161666 -36.883298 109.804704 -25.984774 -12.603616 -4.350841 -7.198961 -2.681206 2.107903 1.773676 -12.159833 7.047513 66.767519 -45.570084 -113.532628 10.977858 -2.123449 -3.244371 -4.179816 -61.919479 11.424253 -33.332678 84.665772 -37.917933 -9.826885 -18.463646 14.907508 0.279662 -0.447628 0.083846 18.332387 -56.203194 -22.131336 67.629259 71.469026 68.871119 -7.156135 -14.678527 0.932747 0.269582 0.733745 0.095001
-51.177281 56.348407 -18.425974 -177.471097 -13.257006 -0.372521 -0.053885 15.297877 -0.412265 0.017205 1.440659 0.028043 0.029253 2.415800 0.041134 0.191918 13.687943 0.247488 -0.013727 10.746334 4.092266 -0.969211 -14.346868 4.388343 -0.806915 -1.789621 1.483133 0.540427 -3.318228 -6.893062 -68.213146 -36.916413 109.850897 -25.990497 -12.608200 -4.370897 -7.185575 -2.696066 2.089681 1.770678 -12.147690 7.044581 66.770972 -45.571914 -113.534411 10.944718 -2.125353 -3.263927 -4.161275 -61.923593 11.423079 -33.327059 84.664380 -37.903051 -9.824975 -18.451265 14.905633 0.273495 -0.436645 0.096881 18.328680 -56.212612 -22.123391 67.669143 71.466348 68.911465 -7.147717 -14.692616 0.932065 0.264895 0.739511 0.100604
-51.178081 56.346579 -18.429099 -177.475487 -13.251631 -0.374014 -0.046141 15.299754 -0.402605 0.016971 1.435937 0.024997 0.028951 2.414604 0.042314 0.185973 13.686075 0.249407 -0.006432 10.719511 4.129333 -0.975490 -14.373584 4.425631 -0.795077 -1.791854 1.481682 0.565084 -3.321998 -6.883395 -68.247724 -36.937850 109.873968 -25.990683 -12.617847 -4.396359 -7.180738 -2.708714 2.087953 1.765775 -12.151600 7.057025 66.784954 -45.583764 -113.545606 10.934104 -2.129110 -3.272716 -4.144980 -61.928936 11.416215 -33.324507 84.662782 -37.892198 -9.834890 -18.438722 14.906826 0.280795 -0.433208 0.100139 18.321074 -56.224261 -22.123952 67.710275 71.460642 68.949582 -7.133093 -14.699411 0.933767 0.252039 0.740635 0.094601
-51.177930 56.344218 -18.430323 -177.480552 -13.236607 -0.379868 -0.035294 15.287396 -0.392909 0.016050 1.434496 0.025737 0.030429 2.414007 0.042983 0.193298 13.681034 0.265774 -0.017773 10.710522 4.133710 -0.982164 -14.409726 4.478786 -0.803782 -1.788504 1.467387 0.601081 -3.327144 -6.868253 -68.278135 -36.955814 109.882258 -25.983718 -12.634738 -4.384228 -7.190842 -2.718634 2.075136 1.753986 -12.198252 7.092595 66.772031 -45.564907 -113.519598 10.923977 -2.134734 -3.273977 -4.137330 -61.944243 11.417055 -33.333158 84.656588 -37.894039 -9.809839 -18.423868 14.894007 0.258938 -0.442264 0.107452 18.320821 -56.241840 -22.120404 67.721312 71.460395 68.959983 -7.132764 -14.714021 0.934561 0.250471 0.752666 0.095390
-51.179293 56.342211 -18.433065 -177.475814 -13.233820 -0.378680 -0.037599 15.286817 -0.394376 0.014191 1.432576 0.026343 0.031937 2.414023 0.043076 0.202313 13.678735 0.268890 -0.025333 10.699164 4.151982 -0.986269 -14.441678 4.526760 -0.794498 -1.789976 1.473407 0.624191 -3.331428 -6.859411 -68.302420 -36.963989 109.890697 -25.968704 -12.636137 -4.355957 -7.202091 -2.728322 2.076732 1.747025 -12.225294 7.112870 66.777853 -45.575424 -113.517739 10.948028 -2.137607 -3.266346 -4.124871 -61.950788 11.408924 -33.495282 84.650836 -38.047890 -9.824569 -18.404794 14.867909 0.262877 -0.452355 0.137198 18.318896 -56.245293 -22.125158 67.732247 71.462189 68.969696 -7.134593 -14.723346 0.934301 0.252742 0.758036 0.099906
-51.179951 56.340226 -18.435499 -177.477152 -13.231899 -0.379706 -0.034971 15.285749 -0.392967 0.017828 1.434339 0.025800 0.030310 2.412077 0.043662 0.210912 13.677196 0.272270 -0.025172 10.676441 4.182524 -0.991574 -14.460106 4.559006 -0.775352 -1.791145 1.477193 0.616802 -3.334497 -6.856428 -68.304176 -36.960464 109.910954 -25.952324 -12.651275 -4.378950 -7.209671 -2.737331 2.075575 1.739294 -12.261740 7.139805 66.778646 -45.580832 -113.514337 10.976608 -2.139275 -3.254740 -4.118984 -61.954378 11.410649 -33.653773 84.643492 -38.203054 -9.816114 -18.393418 14.851367 0.287028 -0.449127 0.152709 18.315789 -56.249547 -22.121411 67.748911 71.463936 68.984815 -7.137672 -14.734038 0.933542 0.254847 0.763978 0.103595
-51.180304 56.338202 -18.437176 -177.477975 -13.228400 -0.382047 -0.027472 15.284818 -0.390408 0.022167 1.434628 0.027202 0.027268 2.410731 0.043100 0.209094 13.675437 0.275687 -0.017251 10.656316 4.210868 -0.997752 -14.460592 4.560983 -0.717435 -1.791939 1.484733 0.578104 -3.339787 -6.858312 -68.305572 -36.962336 109.911721 -25.946853 -12.655836 -4.385383 -7.206819 -2.746971 2.069693 1.729893 -12.303952 7.173122 66.786289 -45.594687 -113.517900 10.965211 -2.148185 -3.260515 -4.121200 -61.958543 11.419416 -33.689449 84.640804 -38.238136 -9.822059 -18.378702 14.838168 0.270015 -0.451398 0.158952 18.317740 -56.255812 -22.121912 67.764992 71.463831 69.003265 -7.142347 -14.741327 0.930623 0.259769 0.767013 0.108399
-51.182037 56.336143 -18.437777 -177.483856 -13.221895 -0.374259 -0.014969 15.279553 -0.393712 0.023106 1.434373 0.026636 0.032803 2.411882 0.045390 0.197587 13.672841 0.276855 -0.009642 10.637246 4.238907 -0.998638 -14.485287 4.600170 -0.683899 -1.792851 1.488270 0.647031 -3.357935 -6.825988 -68.341822 -36.981959 109.858195 -25.943099 -12.647384 -4.380757 -7.203684 -2.756349 2.059860 1.723179 -12.349805 7.208909 66.752544 -45.566360 -113.480351 10.930986 -2.155970 -3.269031 -4.102925 -61.967746 11.412295 -33.731088 84.635921 -38.282493 -9.832523 -18.359606 14.830934 0.302679 -0.449007 0.164955 18.338262 -56.257754 -22.140281 67.764528 71.460411 69.002911 -7.141544 -14.750585 0.932524 0.257652 0.773236 0.110927
-51.182918 56.334564 -18.439163 -177.490121 -13.223031 -0.370967 -0.006994 15.280805 -0.394908 0.033994 1.435831 0.027269 0.034053 2.412555 0.045871 0.210900 13.676746 0.281930 -0.021090 10.615403 4.267036 -1.001015 -14.507304 4.636714 -0.670016 -1.802899 1.496951 0.665742 -3.363075 -6.818629 -68.345667 -36.979672 109.830337 -25.951134 -12.610911 -4.379122 -7.228223 -2.766765 2.057717 1.721361 -12.373897 7.226810 66.790021 -45.610989 -113.513962 10.963221 -2.153552 -3.260425 -4.086626 -61.969406 11.411520 -33.810820 84.628486 -38.366729 -9.826983 -18.335211 14.823745 0.267329 -0.445133 0.154973 18.348983 -56.254354 -22.143479 67.773220 71.463076 69.007037 -7.134319 -14.764289 0.939133 0.250445 0.781341 0.109367
-51.185007 56.333130 -18.439597 -177.492364 -13.221286 -0.359928 0.007734 15.279774 -0.402464 0.031970 1.437835 0.029630 0.035329 2.413204 0.046113 0.208440 13.675468 0.282421 -0.012413 10.601190 4.290251 -1.005870 -14.516687 4.658118 -0.638930 -1.808844 1.505460 0.686411 -3.364852 -6.812441 -68.382611 -36.987842 109.806337 -25.983482 -12.554127 -4.376590 -7.237807 -2.771596 2.055099 1.721141 -12.399633 7.244104 66.819289 -45.645042 -113.537884 10.973425 -2.152709 -3.255612 -4.049543 -61.977069 11.385741 -33.922347 84.622305 -38.477494 -9.825690 -18.312593 14.816069 0.279520 -0.455444 0.164186 18.367976 -56.251845 -22.161629 67.794402 71.451610 69.013849 -7.129933 -14.769532 0.956759 0.229450 0.784280 0.100939
-51.186131 56.332133 -18.440134 -177.497452 -13.222108 -0.352231 0.022138 15.283467 -0.403314 0.033299 1.439866 0.027968 0.036202 2.414178 0.046095 0.218377 13.673425 0.286322 -0.013994 10.588638 4.310951 -1.007758 -14.523888 4.676152 -0.617067 -1.813280 1.512060 0.705873 -3.368037 -6.804192 -68.385560 -36.976339 109.775696 -25.992299 -12.519710 -4.377975 -7.255260 -2.778739 2.049570 1.726229 -12.507012 7.283536 66.770500 -45.625558 -113.463783 10.969879 -2.150721 -3.255505 -4.027678 -61.978098 11.371707 -33.945809 84.617851 -38.501664 -9.816753 -18.296510 14.799969 0.275081 -0.461929 0.174527 18.389264 -56.246304 -22.172795 67.796134 71.452133 69.011741 -7.134520 -14.777222 0.963795 0.226137 0.789319 0.101222
-51.186238 56.331567 -18.440363 -177.490788 -13.222342 -0.350959 0.027143 15.286261 -0.402109 0.027691 1.440781 0.027419 0.041814 2.420280 0.046249 0.223267 13.671650 0.286864 -0.009407 10.578251 4.330317 -1.016292 -14.529042 4.679706 -0.610750 -1.820046 1.517936 0.714835 -3.370711 -6.799675 -68.294133 -36.925314 109.733130 -25.948259 -12.554129 -4.382178 -7.266950 -2.787839 2.044528 1.727573 -12.583907 7.314834 66.770018 -45.637587 -113.430277 10.965030 -2.151912 -3.255233 -4.025384 -61.978631 11.368325 -34.100870 84.604167 -38.661203 -9.784880 -18.276817 14.783489 0.271350 -0.452172 0.166755 18.400623 -56.243617 -22.178986 67.785791 71.459589 69.002432 -7.145829 -14.777952 0.966118 0.234985 0.789781 0.107577
